<svg viewBox="0 0 512 512" xmlns="http://www.w3.org/2000/svg">
    <defs>
        <linearGradient id="bg-gradient" x1="0%" y1="0%" x2="100%" y2="100%">
            <stop offset="0%" style="stop-color:#2966A3; stop-opacity:1"/>
            <stop offset="100%" style="stop-color:#1a571; stop-opacity:1"/>
        </linearGradient>

        <mask id="center-cutout">
            <rect x="-300" y="-300" width="600" height="600 " fill="white"/>
            <circle cx="0" cy="0" r="105" fill="black"/>
        </mask>
    </defs>

    <rect x="0" y="0" width="512" height="512" rx="110" fill="url(#bg-gradient)"/>

    <g transform="translate(256, 256) rotate(-45)">
        <g mask="url(#center-cutout)" fill="#FFFFFF">
            <rect x="-160" y="-160" width="50" height="320" rx="20"/>
            <rect x="-85" y="-160" width="40" height="320" rx="12"/>
            <rect x="-13" y="-160" width="26" height="320" rx="6"/>
            <rect x="40" y="-160" width="40" height="320" rx="12"/>
            <rect x="110" y="-150" width="50" height="320" rx="20"/>
        </g>
    </g>

    <g fill="#FFFFFF" transform="translate(256, 256)">
        <circle cx="0" cy="0" r="13"/>
        <rect x="-13" y="-10" width="26" height="10"/>
        <rect x="-13" y="-90" width="26" height="90" rx="6"/>
        <rect x="0" y="-13" width="10" height="26" transform="rotate(45)"/>
        <rect x="0" y="-13" width="65" height="26" rx="6" transform="rotate(45)"/>
    </g>
</svg>